<?xml version="1.0" standalone="no"?>
<!DOCTYPE svg PUBLIC "-//W3C//DTD SVG 20010904//EN"
 "http://www.w3.org/TR/2001/REC-SVG-20010904/DTD/svg10.dtd">
<svg version="1.0" xmlns="http://www.w3.org/2000/svg"
 width="280.000000pt" height="280.000000pt" viewBox="0 0 280.000000 280.000000"
 preserveAspectRatio="xMidYMid meet">
<metadata>
Created by potrace 1.14, written by Peter Selinger 2001-2017
</metadata>
<g transform="translate(0.000000,280.000000) scale(0.100000,-0.100000)"
fill="#000000" stroke="none">
<path d="M1225 2760 c-78 -11 -101 -15 -155 -30 -25 -7 -52 -14 -60 -15 -116
-26 -377 -164 -476 -251 -143 -127 -239 -238 -306 -354 -57 -99 -66 -119 -100
-205 -69 -174 -92 -302 -93 -500 0 -166 6 -218 39 -346 115 -440 425 -784 852
-945 165 -62 305 -84 499 -79 155 4 185 8 299 36 136 34 270 91 386 163 57 35
87 57 173 126 35 28 103 97 154 156 144 169 249 387 299 624 19 92 25 335 11
448 -35 279 -185 581 -393 786 -75 74 -204 176 -223 176 -5 0 -11 4 -13 8 -8
22 -269 143 -338 157 -8 2 -34 8 -57 14 -129 35 -365 49 -498 31z"/>
</g>
</svg>
